{
  "accessors": [
    {
      "bufferView": 2,
      "componentType": 5126,
      "count": 1565,
      "max": [
        0.4453130066394806,
        0.5044710040092468,
        0.4787270128726959
      ],
      "min": [
        -0.4304870069026947,
        -0.504243016242981,
        -0.4588310122489929
      ],
      "type": "VEC3"
    },
    {
      "bufferView": 2,
      "byteOffset": 18780,
      "componentType": 5126,
      "count": 1565,
      "max": [
        0.999420166015625,
        0.9993106126785278,
        0.9999840259552002
      ],
      "min": [
        -0.9998003840446472,
        -0.997745156288147,
        -0.999984860420227
      ],
      "type": "VEC3"
    },
    {
      "bufferView": 3,
      "componentType": 5126,
      "count": 1565,
      "max": [
        0.9999241828918457,
        0.9774807095527649,
        0.999927818775177,
        1.0
      ],
      "min": [
        -0.9971960186958313,
        -0.9948535561561584,
        -0.6172845959663391,
        1.0
      ],
      "type": "VEC4"
    },
    {
      "bufferView": 1,
      "componentType": 5126,
      "count": 1565,
      "max": [
        0.8881840109825134,
        0.9980409741401672
      ],
      "min": [
        0.0019490000559017062,
        0.0019529999699443579
      ],
      "type": "VEC2"
    },
    {
      "bufferView": 0,
      "componentType": 5125,
      "count": 8982,
      "type": "SCALAR"
    }
  ],
  "asset": {
    "extras": {
      "author": "venetian65 (https://sketchfab.com/pielikepoly)",
      "license": "CC-BY-SA-4.0 (http://creativecommons.org/licenses/by-sa/4.0/)",
      "source": "https://sketchfab.com/3d-models/rock-formation-4a09d9b9b8ff44b9ace7b23216286bdb",
      "title": "rock formation"
    },
    "generator": "Sketchfab-12.66.0",
    "version": "2.0"
  },
  "bufferViews": [
    {
      "buffer": 0,
      "byteLength": 35928,
      "name": "floatBufferViews",
      "target": 34963
    },
    {
      "buffer": 0,
      "byteLength": 12520,
      "byteOffset": 35928,
      "byteStride": 8,
      "name": "floatBufferViews",
      "target": 34962
    },
    {
      "buffer": 0,
      "byteLength": 37560,
      "byteOffset": 48448,
      "byteStride": 12,
      "name": "floatBufferViews",
      "target": 34962
    },
    {
      "buffer": 0,
      "byteLength": 25040,
      "byteOffset": 86008,
      "byteStride": 16,
      "name": "floatBufferViews",
      "target": 34962
    }
  ],
  "buffers": [
    {
      "byteLength": 111048,
      "uri": "scene.bin"
    }
  ],
  "images": [
    {
      "uri": "textures/rock_big_a_MAT_baseColor.png"
    },
    {
      "uri": "textures/rock_big_a_MAT_normal.png"
    }
  ],
  "materials": [
    {
      "doubleSided": true,
      "name": "rock_big_a_MAT",
      "normalTexture": {
        "index": 1
      },
      "pbrMetallicRoughness": {
        "baseColorTexture": {
          "index": 0
        },
        "metallicFactor": 0.0,
        "roughnessFactor": 0.6
      }
    }
  ],
  "meshes": [
    {
      "name": "Object_0",
      "primitives": [
        {
          "attributes": {
            "NORMAL": 1,
            "POSITION": 0,
            "TANGENT": 2,
            "TEXCOORD_0": 3
          },
          "indices": 4,
          "material": 0,
          "mode": 4
        }
      ]
    }
  ],
  "nodes": [
    {
      "children": [
        1
      ],
      "matrix": [
        1.0,
        0.0,
        0.0,
        0.0,
        0.0,
        2.220446049250313e-16,
        -1.0,
        0.0,
        0.0,
        1.0,
        2.220446049250313e-16,
        0.0,
        0.0,
        0.0,
        0.0,
        1.0
      ],
      "name": "Sketchfab_model"
    },
    {
      "children": [
        2
      ],
      "name": "f254a89db4b140e88d67bd1ca39592db.obj.cleaner"
    },
    {
      "mesh": 0,
      "name": "Object_2"
    }
  ],
  "samplers": [
    {
      "magFilter": 9729,
      "minFilter": 9987,
      "wrapS": 10497,
      "wrapT": 10497
    }
  ],
  "scene": 0,
  "scenes": [
    {
      "name": "Sketchfab_Scene",
      "nodes": [
        0
      ]
    }
  ],
  "textures": [
    {
      "sampler": 0,
      "source": 0
    },
    {
      "sampler": 0,
      "source": 1
    }
  ]
}
